<mxfile host="app.diagrams.net" modified="2024-01-12T19:12:54.662Z" agent="Mozilla/5.0 (Windows NT 10.0; Win64; x64) AppleWebKit/537.36 (KHTML, like Gecko) Chrome/120.0.0.0 Safari/537.36" etag="3vc_roN1LNNQ1I-uKQuW" version="22.1.18" type="github">
  <diagram name="Page-1" id="c7488fd3-1785-93aa-aadb-54a6760d102a">
    <mxGraphModel dx="1050" dy="574" grid="1" gridSize="10" guides="1" tooltips="1" connect="1" arrows="1" fold="1" page="1" pageScale="1" pageWidth="1100" pageHeight="850" background="none" math="0" shadow="0">
      <root>
        <mxCell id="0" />
        <mxCell id="1" parent="0" />
        <mxCell id="DAtykH0SRuk17hWWP9iM-9" value="" style="edgeStyle=orthogonalEdgeStyle;rounded=0;orthogonalLoop=1;jettySize=auto;html=1;strokeColor=#60E696;fontColor=#095C86;fillColor=#F694C1;" edge="1" parent="1" source="DAtykH0SRuk17hWWP9iM-3" target="DAtykH0SRuk17hWWP9iM-8">
          <mxGeometry relative="1" as="geometry" />
        </mxCell>
        <mxCell id="DAtykH0SRuk17hWWP9iM-3" value="Postar foto&amp;nbsp;&lt;br&gt;Instagram" style="rounded=1;whiteSpace=wrap;html=1;strokeColor=#AF45ED;fontColor=#095C86;fillColor=#F694C1;" vertex="1" parent="1">
          <mxGeometry x="480" y="380" width="120" height="60" as="geometry" />
        </mxCell>
        <mxCell id="DAtykH0SRuk17hWWP9iM-11" value="" style="edgeStyle=orthogonalEdgeStyle;rounded=0;orthogonalLoop=1;jettySize=auto;html=1;strokeColor=#60E696;fontColor=#095C86;fillColor=#F694C1;" edge="1" parent="1" source="DAtykH0SRuk17hWWP9iM-8" target="DAtykH0SRuk17hWWP9iM-10">
          <mxGeometry relative="1" as="geometry" />
        </mxCell>
        <mxCell id="DAtykH0SRuk17hWWP9iM-8" value="&lt;p data-pm-slice=&quot;1 1 []&quot;&gt;Clicar em novo post&lt;/p&gt;" style="whiteSpace=wrap;html=1;fillColor=#F694C1;strokeColor=#AF45ED;fontColor=#095C86;rounded=1;" vertex="1" parent="1">
          <mxGeometry x="480" y="520" width="120" height="60" as="geometry" />
        </mxCell>
        <mxCell id="DAtykH0SRuk17hWWP9iM-13" value="" style="edgeStyle=orthogonalEdgeStyle;rounded=0;orthogonalLoop=1;jettySize=auto;html=1;strokeColor=#60E696;fontColor=#095C86;fillColor=#F694C1;" edge="1" parent="1" source="DAtykH0SRuk17hWWP9iM-10" target="DAtykH0SRuk17hWWP9iM-12">
          <mxGeometry relative="1" as="geometry" />
        </mxCell>
        <mxCell id="DAtykH0SRuk17hWWP9iM-10" value="&lt;p data-pm-slice=&quot;1 1 []&quot;&gt;Selecionar uma ou mais fotos&lt;/p&gt;" style="whiteSpace=wrap;html=1;fillColor=#F694C1;strokeColor=#AF45ED;fontColor=#095C86;rounded=1;" vertex="1" parent="1">
          <mxGeometry x="480" y="660" width="120" height="60" as="geometry" />
        </mxCell>
        <mxCell id="DAtykH0SRuk17hWWP9iM-15" value="" style="edgeStyle=orthogonalEdgeStyle;rounded=0;orthogonalLoop=1;jettySize=auto;html=1;strokeColor=#60E696;fontColor=#095C86;fillColor=#F694C1;" edge="1" parent="1" source="DAtykH0SRuk17hWWP9iM-12" target="DAtykH0SRuk17hWWP9iM-14">
          <mxGeometry relative="1" as="geometry" />
        </mxCell>
        <mxCell id="DAtykH0SRuk17hWWP9iM-12" value="&lt;p data-pm-slice=&quot;1 1 []&quot;&gt;Clicar em próximo&lt;/p&gt;" style="whiteSpace=wrap;html=1;fillColor=#F694C1;strokeColor=#AF45ED;fontColor=#095C86;rounded=1;" vertex="1" parent="1">
          <mxGeometry x="480" y="800" width="120" height="60" as="geometry" />
        </mxCell>
        <mxCell id="DAtykH0SRuk17hWWP9iM-17" value="" style="edgeStyle=orthogonalEdgeStyle;rounded=0;orthogonalLoop=1;jettySize=auto;html=1;strokeColor=#60E696;fontColor=#095C86;fillColor=#F694C1;" edge="1" parent="1" source="DAtykH0SRuk17hWWP9iM-14" target="DAtykH0SRuk17hWWP9iM-16">
          <mxGeometry relative="1" as="geometry" />
        </mxCell>
        <mxCell id="DAtykH0SRuk17hWWP9iM-14" value="&lt;p data-pm-slice=&quot;1 1 []&quot;&gt;Fazer as edições de áudio e vídeo&lt;/p&gt;" style="whiteSpace=wrap;html=1;fillColor=#F694C1;strokeColor=#AF45ED;fontColor=#095C86;rounded=1;" vertex="1" parent="1">
          <mxGeometry x="680" y="800" width="120" height="60" as="geometry" />
        </mxCell>
        <mxCell id="DAtykH0SRuk17hWWP9iM-19" value="" style="edgeStyle=orthogonalEdgeStyle;rounded=0;orthogonalLoop=1;jettySize=auto;html=1;strokeColor=#60E696;fontColor=#095C86;fillColor=#F694C1;" edge="1" parent="1" source="DAtykH0SRuk17hWWP9iM-16" target="DAtykH0SRuk17hWWP9iM-18">
          <mxGeometry relative="1" as="geometry" />
        </mxCell>
        <mxCell id="DAtykH0SRuk17hWWP9iM-16" value="&lt;br&gt;&lt;p data-pm-slice=&quot;1 1 []&quot;&gt;Clicar na seta de sequencia&lt;/p&gt;&lt;br&gt;" style="whiteSpace=wrap;html=1;fillColor=#F694C1;strokeColor=#AF45ED;fontColor=#095C86;rounded=1;" vertex="1" parent="1">
          <mxGeometry x="680" y="660" width="120" height="60" as="geometry" />
        </mxCell>
        <mxCell id="DAtykH0SRuk17hWWP9iM-21" value="" style="edgeStyle=orthogonalEdgeStyle;rounded=0;orthogonalLoop=1;jettySize=auto;html=1;strokeColor=#60E696;fontColor=#095C86;fillColor=#F694C1;" edge="1" parent="1" source="DAtykH0SRuk17hWWP9iM-18" target="DAtykH0SRuk17hWWP9iM-20">
          <mxGeometry relative="1" as="geometry" />
        </mxCell>
        <mxCell id="DAtykH0SRuk17hWWP9iM-18" value="&lt;p data-pm-slice=&quot;1 1 []&quot;&gt;Editar a capa, localização, marcações, etc.&lt;/p&gt;" style="whiteSpace=wrap;html=1;fillColor=#F694C1;strokeColor=#AF45ED;fontColor=#095C86;rounded=1;" vertex="1" parent="1">
          <mxGeometry x="680" y="520" width="120" height="60" as="geometry" />
        </mxCell>
        <mxCell id="DAtykH0SRuk17hWWP9iM-23" value="" style="edgeStyle=orthogonalEdgeStyle;rounded=0;orthogonalLoop=1;jettySize=auto;html=1;strokeColor=#60E696;fontColor=#095C86;fillColor=#F694C1;" edge="1" parent="1" source="DAtykH0SRuk17hWWP9iM-20" target="DAtykH0SRuk17hWWP9iM-22">
          <mxGeometry relative="1" as="geometry" />
        </mxCell>
        <mxCell id="DAtykH0SRuk17hWWP9iM-20" value="&lt;p data-pm-slice=&quot;1 1 []&quot;&gt;Escrever uma descrição&lt;/p&gt;" style="whiteSpace=wrap;html=1;fillColor=#F694C1;strokeColor=#AF45ED;fontColor=#095C86;rounded=1;" vertex="1" parent="1">
          <mxGeometry x="680" y="380" width="120" height="60" as="geometry" />
        </mxCell>
        <mxCell id="DAtykH0SRuk17hWWP9iM-22" value="Postar" style="whiteSpace=wrap;html=1;fillColor=#F694C1;strokeColor=#AF45ED;fontColor=#095C86;rounded=1;" vertex="1" parent="1">
          <mxGeometry x="880" y="380" width="120" height="60" as="geometry" />
        </mxCell>
      </root>
    </mxGraphModel>
  </diagram>
</mxfile>
